<svg width="24" height="24" viewBox="0 0 24 24" fill="none" xmlns="http://www.w3.org/2000/svg">
<path d="M6.25 7C6.25 3.82436 8.82436 1.25 12 1.25C15.1756 1.25 17.75 3.82436 17.75 7V10.75H6.25V7Z" stroke="#9E9E9E" stroke-width="2.5"/>
<path fill-rule="evenodd" clip-rule="evenodd" d="M4.5 9C3.67157 9 3 9.67157 3 10.5V22.5C3 23.3284 3.67157 24 4.5 24H19.5C20.3284 24 21 23.3284 21 22.5V10.5C21 9.67157 20.3284 9 19.5 9H4.5ZM14 15C14 15.7403 13.5978 16.3866 13 16.7324V19C13 19.5523 12.5523 20 12 20C11.4477 20 11 19.5523 11 19V16.7324C10.4022 16.3866 10 15.7403 10 15C10 13.8954 10.8954 13 12 13C13.1046 13 14 13.8954 14 15Z" fill="#9E9E9E"/>
</svg>
